<svg xmlns="http://www.w3.org/2000/svg" width="150" viewBox="0 0 150 30" height="30" version="1.0"><defs><clipPath id="a"><path d="M 78 10 L 147.578125 10 L 147.578125 17 L 78 17 Z M 78 10"/></clipPath><clipPath id="b"><path d="M 2.417969 10 L 72 10 L 72 17 L 2.417969 17 Z M 2.417969 10"/></clipPath><clipPath id="c"><path d="M 72 8.097656 L 78 8.097656 L 78 18.988281 L 72 18.988281 Z M 72 8.097656"/></clipPath></defs><g clip-path="url(#a)"><path fill="#CDB5A1" d="M 84.664062 14.316406 L 147.585938 13.542969 L 84.664062 12.769531 C 83.058594 11.710938 81.433594 10.933594 80.308594 10.722656 C 79.808594 10.625 79.375 10.636719 79.035156 10.769531 C 78.585938 10.949219 78.320312 11.289062 78.289062 11.824219 C 78.265625 12.25 78.425781 12.816406 78.816406 13.542969 C 78.425781 14.269531 78.265625 14.835938 78.289062 15.257812 C 78.320312 15.792969 78.585938 16.136719 79.035156 16.316406 C 79.375 16.449219 79.808594 16.457031 80.308594 16.363281 C 81.433594 16.148438 83.058594 15.375 84.664062 14.316406 Z M 79.445312 11.886719 C 79.429688 12.15625 79.589844 12.601562 79.976562 13.257812 L 80.144531 13.542969 L 79.976562 13.824219 C 79.589844 14.484375 79.429688 14.929688 79.445312 15.199219 C 79.445312 15.234375 79.453125 15.257812 79.464844 15.261719 C 79.589844 15.308594 79.804688 15.300781 80.09375 15.246094 C 81.015625 15.070312 82.363281 14.433594 83.757812 13.542969 C 82.363281 12.652344 81.015625 12.015625 80.09375 11.835938 C 79.804688 11.78125 79.589844 11.773438 79.464844 11.824219 C 79.453125 11.828125 79.445312 11.847656 79.445312 11.886719 Z M 79.445312 11.886719" fill-rule="evenodd"/></g><g clip-path="url(#b)"><path fill="#CDB5A1" d="M 65.339844 14.316406 L 2.417969 13.542969 L 65.339844 12.769531 C 66.949219 11.710938 68.570312 10.933594 69.695312 10.722656 C 70.195312 10.625 70.628906 10.636719 70.96875 10.769531 C 71.421875 10.949219 71.6875 11.289062 71.714844 11.824219 C 71.738281 12.25 71.578125 12.816406 71.1875 13.542969 C 71.578125 14.269531 71.738281 14.835938 71.714844 15.257812 C 71.6875 15.792969 71.421875 16.136719 70.96875 16.316406 C 70.628906 16.449219 70.195312 16.457031 69.695312 16.363281 C 68.570312 16.148438 66.949219 15.375 65.339844 14.316406 Z M 70.5625 11.886719 C 70.578125 12.15625 70.414062 12.601562 70.027344 13.257812 L 69.863281 13.542969 L 70.027344 13.824219 C 70.414062 14.484375 70.578125 14.929688 70.5625 15.199219 C 70.558594 15.234375 70.550781 15.257812 70.539062 15.261719 C 70.417969 15.308594 70.199219 15.300781 69.910156 15.246094 C 68.988281 15.070312 67.640625 14.433594 66.25 13.542969 C 67.640625 12.652344 68.988281 12.015625 69.910156 11.835938 C 70.199219 11.78125 70.417969 11.773438 70.539062 11.824219 C 70.550781 11.828125 70.558594 11.847656 70.5625 11.886719 Z M 70.5625 11.886719" fill-rule="evenodd"/></g><g clip-path="url(#c)"><path fill="#CDB5A1" d="M 77.824219 13.542969 C 76.527344 14.328125 75.703125 16.289062 75.214844 18.085938 C 75.140625 18.367188 75.070312 18.652344 75.003906 18.9375 C 74.9375 18.652344 74.867188 18.367188 74.789062 18.085938 C 74.300781 16.289062 73.480469 14.328125 72.179688 13.542969 C 73.480469 12.757812 74.300781 10.792969 74.789062 8.996094 C 74.867188 8.71875 74.9375 8.433594 75.003906 8.144531 C 75.070312 8.433594 75.140625 8.71875 75.214844 8.996094 C 75.703125 10.792969 76.527344 12.757812 77.824219 13.542969 Z M 77.824219 13.542969" fill-rule="evenodd"/></g></svg>